<?xml version="1.0" encoding="UTF-8"?>
<svg width="155px" height="135px" viewBox="0 0 155 135" version="1.1" xmlns="http://www.w3.org/2000/svg" xmlns:xlink="http://www.w3.org/1999/xlink">
    <!-- Generator: Sketch 43.2 (39069) - http://www.bohemiancoding.com/sketch -->
    <title>head</title>
    <desc>Created with Sketch.</desc>
    <defs>
        <polygon id="path-1" points="155 0.3713 155 135 0 135 0 0.3713 155 0.3713"></polygon>
    </defs>
    <g id="Page-1" stroke="none" stroke-width="1" fill="none" fill-rule="evenodd">
        <g id="head">
            <mask id="mask-2" fill="white">
                <use xlink:href="#path-1"></use>
            </mask>
            <g id="Clip-2"></g>
            <path d="M152.1123,62.7373 C151.9133,62.6633 132.3053,55.2443 124.4323,44.7473 C124.3743,44.6673 124.3093,44.5893 124.2453,44.5123 C122.3033,42.2693 120.9153,40.4903 119.8053,39.0033 C120.4603,38.8623 121.0693,38.7013 121.5923,38.5163 C123.0503,38.0043 124.1223,36.7523 124.4073,35.2323 C124.6903,33.7143 124.1433,32.1593 122.9673,31.1543 C121.8583,30.2053 95.8333,8.1793 70.6183,7.6363 C67.7853,5.2033 61.0003,0.3713 51.7813,0.3713 C48.7753,0.3713 45.7493,0.8893 42.7873,1.9153 C41.2933,2.4323 40.1763,3.7063 39.9143,5.2653 C39.6523,6.8253 40.2403,8.3853 41.4823,9.3623 C41.5793,9.4423 43.1053,10.7393 44.4633,13.4443 C42.0273,12.8013 38.9343,12.2453 35.5313,12.2453 C29.9473,12.2453 24.8843,13.7033 20.4823,16.5783 C18.7683,17.6973 17.9203,19.8863 18.6673,21.7933 C19.3923,23.6473 21.1343,24.7813 23.0913,24.5263 C23.7033,24.6123 27.0583,25.3603 31.3273,31.4843 C30.2593,33.5203 28.9243,36.6073 28.2613,40.2513 C28.2413,40.3503 28.2223,40.4513 28.2083,40.5523 C28.0873,41.2643 28.0043,41.8823 27.9453,42.5003 C27.9243,42.7313 27.9083,42.9563 27.8933,43.1783 L27.8903,43.2253 C27.1493,47.9523 24.4313,59.6643 14.9543,70.4133 C13.1513,72.2403 9.6253,76.0243 8.9563,76.7443 C8.6813,76.9963 7.6313,77.9453 4.7303,80.4173 C1.0303,83.5703 -0.6717,88.4023 0.3923,92.7273 C1.0603,95.4403 3.4323,100.2753 11.8043,102.1723 C14.1033,102.6933 16.4623,102.9573 18.8163,102.9573 C24.2263,102.9573 28.7143,101.6093 32.3193,100.5263 C33.7573,100.0943 34.9973,99.7223 35.9673,99.5273 C37.2043,99.3003 38.5093,99.0223 39.8613,98.6993 C43.4393,97.8413 46.2093,96.9463 46.9783,96.6903 C47.3293,96.5733 47.7283,96.4353 48.1703,96.2833 C51.0033,95.3053 55.7463,93.6713 59.0893,93.6713 C59.4543,93.6713 59.7853,93.6913 60.0713,93.7323 C64.3383,94.3483 68.2383,96.9093 70.5043,100.5823 L70.8163,101.0893 C74.0493,106.3163 78.4763,113.4743 78.3573,129.5393 C78.3433,131.4033 79.5263,133.0663 81.2923,133.6653 C81.6343,133.7813 82.9063,134.1623 84.8383,134.1623 C88.4163,134.1623 95.5233,132.7973 102.8993,123.6523 C112.4283,111.8333 115.6043,104.4243 118.4233,94.0913 C121.1143,84.2243 127.3333,71.1073 150.1573,71.1073 L150.5673,71.1093 L150.5963,71.1093 C152.6803,71.1093 154.4693,69.6223 154.8483,67.5693 C155.2273,65.5083 154.0753,63.4703 152.1123,62.7373" id="Fill-10" fill="#231F1F" mask="url(#mask-2)"></path>
            <path d="M120.9736,47.3408 C115.1616,40.6168 113.9576,37.7108 111.5736,35.5978 C111.5736,35.5978 117.6376,35.3248 120.1576,34.4388 C120.1576,34.4388 93.7176,11.8158 69.4566,11.9498 C69.2736,11.9518 69.0936,11.9518 68.9146,11.9528 L68.9146,11.9498 C68.9146,11.9498 58.6456,1.0028 44.2006,6.0008 C44.2006,6.0008 48.8806,9.6798 50.4216,17.7668 C50.4216,17.7668 48.6736,18.6298 47.9926,19.2428 C47.9926,19.2428 34.4316,12.6318 22.8466,20.1968 C22.8466,20.1968 29.2506,19.5828 36.4076,31.3728 C36.4076,31.3728 33.4836,35.4928 32.4916,41.1598 L32.4896,41.1568 C32.4896,41.1568 32.4896,41.1738 32.4876,41.1808 C32.3896,41.7378 32.3056,42.3048 32.2506,42.8898 C32.2256,43.1688 32.2106,43.4358 32.1916,43.7028 C31.3846,48.9978 28.4516,61.6928 18.1146,73.3658 C16.2206,75.2778 12.0166,79.8008 12.0166,79.8008 C12.0166,79.8008 11.2146,80.5718 7.5356,83.7068 C3.2116,87.3918 2.0426,95.5288 12.7596,97.9558 C22.5766,100.1808 30.0276,96.3098 35.1856,95.2758 C36.4226,95.0478 37.6586,94.7808 38.8416,94.4968 C38.8436,94.4968 38.8546,94.4938 38.8546,94.4938 C41.6656,93.8208 44.1726,93.0678 45.6086,92.5898 C48.7436,91.5428 55.9646,88.7728 60.6886,89.4538 C65.4146,90.1358 70.8216,92.8618 74.1836,98.3138 C77.5436,103.7648 82.8126,111.7218 82.6796,129.5698 C82.6796,129.5698 90.4466,132.2048 99.5336,120.9398 C108.6196,109.6718 111.5266,102.9468 114.2506,92.9528 C116.9796,82.9578 123.8856,66.6048 150.5966,66.7858 C150.5966,66.7858 129.6966,58.9718 120.9736,47.3408" id="Fill-11" fill="#DD2238" mask="url(#mask-2)"></path>
            <path d="M101.8789,117.9414 C102.3439,117.3324 102.7909,116.7334 103.2179,116.1474 C103.3499,115.9674 103.4809,115.7894 103.6079,115.6104 C104.0959,114.9354 104.5609,114.2734 105.0019,113.6264 C105.0389,113.5704 105.0799,113.5134 105.1169,113.4594 C105.6209,112.7134 106.0979,111.9844 106.5469,111.2674 C106.5509,111.2614 106.5539,111.2554 106.5579,111.2504 C106.5959,111.1604 114.2259,92.7444 101.7119,81.2584 C89.1759,69.7464 70.4559,73.7814 70.4559,73.7814 L77.0899,70.9654 C64.4589,64.2424 49.9229,77.9614 45.9249,81.6864 C42.7969,84.6024 38.9339,88.4354 33.6209,90.9414 C32.1449,91.6384 30.5609,92.2384 28.8439,92.6804 L28.8419,92.6804 C27.1599,93.2354 25.1309,93.8494 22.8849,94.4204 C18.5869,95.5104 13.5069,96.4354 8.5969,96.4504 C9.7199,97.0644 11.0959,97.5794 12.7599,97.9564 C22.5759,100.1804 30.0269,96.3094 35.1859,95.2754 C36.4229,95.0474 37.6579,94.7814 38.8419,94.4974 C38.8439,94.4974 38.8549,94.4944 38.8549,94.4944 C41.5309,93.8534 43.9199,93.1424 45.3829,92.6644 L45.3829,92.6634 C45.4549,92.6394 45.5399,92.6124 45.6079,92.5894 C48.7429,91.5434 55.9649,88.7724 60.6889,89.4544 C65.4149,90.1354 70.8209,92.8624 74.1839,98.3134 C77.5439,103.7644 82.8129,111.7214 82.6799,129.5704 C82.6799,129.5704 90.4459,132.2054 99.5329,120.9394 C100.2049,120.1074 100.8339,119.3044 101.4399,118.5184 C101.5909,118.3244 101.7329,118.1334 101.8789,117.9414" id="Fill-12" fill="#7F0918" mask="url(#mask-2)"></path>
            <path d="M47.2734,21.6582 C47.0874,21.4722 46.9004,21.2912 46.7204,21.1052 C46.6344,21.0172 46.5444,20.9372 46.4294,20.8842 L46.2374,20.8842 C46.1274,20.9472 46.0374,21.0332 45.9464,21.1242 C43.2654,23.8042 40.5864,26.4862 37.9014,29.1672 C37.8124,29.2582 37.7264,29.3482 37.6654,29.4622 C37.6634,29.5232 37.6634,29.5892 37.6654,29.6522 C37.7134,29.7582 37.7834,29.8432 37.8634,29.9252 C38.0704,30.1242 38.2714,30.3292 38.4734,30.5312 C38.6864,30.7392 38.8874,30.7412 39.0964,30.5372 C39.2384,30.3942 39.3774,30.2542 39.5204,30.1102 C42.1044,27.5262 44.6884,24.9412 47.2734,22.3572 C47.5314,22.0992 47.5314,21.9182 47.2734,21.6582" id="Fill-13" fill="#231F1F" mask="url(#mask-2)"></path>
            <path d="M46.8164,31.123 C46.8134,30.561 47.2734,30.094 47.8374,30.091 C48.4104,30.087 48.8804,30.548 48.8824,31.117 C48.8864,31.689 48.4264,32.151 47.8524,32.153 C47.2804,32.155 46.8164,31.696 46.8164,31.123 M48.6974,40.525 C48.8194,40.461 48.8284,40.357 48.7954,40.232 C48.6674,39.716 48.6124,39.19 48.6034,38.66 C48.6194,38.403 48.6354,38.147 48.6524,37.894 C48.6584,37.808 48.6694,37.721 48.6834,37.635 C48.9864,35.825 49.8514,34.352 51.3054,33.234 C52.4544,32.355 53.7564,31.898 55.1984,31.845 C55.8184,31.818 56.4284,31.883 57.0304,32.019 C57.1754,32.053 57.2924,31.993 57.3264,31.869 C57.3574,31.748 57.2814,31.672 57.2084,31.597 L50.6224,25.011 C50.3854,24.771 50.1764,24.771 49.9374,25.008 C49.2574,25.687 48.5764,26.37 47.8944,27.052 C45.8554,29.093 43.8144,31.134 41.7754,33.173 C41.5594,33.391 41.5464,33.605 41.7524,33.805 C43.9664,36.019 46.1824,38.234 48.3944,40.45 C48.4814,40.535 48.5744,40.596 48.6974,40.525" id="Fill-14" fill="#231F1F" mask="url(#mask-2)"></path>
            <path d="M49.2373,23.626 C49.0343,23.423 48.8323,23.22 48.6253,23.016 C48.3613,22.75 48.1853,22.75 47.9183,23.02 C45.6523,25.285 43.3853,27.55 41.1233,29.818 C40.6623,30.273 40.2073,30.733 39.7443,31.188 C39.6583,31.276 39.5943,31.373 39.5983,31.497 C39.5983,31.612 39.6453,31.702 39.7203,31.78 C39.9603,32.014 40.1943,32.253 40.4323,32.485 C40.6293,32.675 40.8253,32.668 41.0193,32.476 C43.7613,29.733 46.5023,26.997 49.2413,24.255 C49.4553,24.04 49.4523,23.842 49.2373,23.626" id="Fill-15" fill="#231F1F" mask="url(#mask-2)"></path>
            <path d="M63.7158,45.1006 C64.7188,45.1056 65.5328,45.9306 65.5278,46.9326 C65.5208,47.9406 64.6948,48.7586 63.6888,48.7496 C62.6838,48.7436 61.8708,47.9156 61.8768,46.9166 C61.8808,45.9036 62.7048,45.0926 63.7158,45.1006 M56.7758,35.5466 C56.9548,36.3686 56.8448,37.1426 56.5508,37.8166 C54.8018,36.0656 53.1548,34.4196 52.2958,33.5546 C52.2068,33.4666 52.1538,33.4716 52.0598,33.5346 C51.3548,34.0006 50.7778,34.5826 50.3098,35.2876 C50.2478,35.3796 50.2478,35.4266 50.3298,35.5086 C51.0908,36.2646 52.8068,37.9806 54.5608,39.7376 L58.6918,43.8696 C58.9028,44.0806 59.0978,44.2766 59.2448,44.4226 C59.6858,44.8626 60.1228,45.3026 60.5648,45.7386 C60.6318,45.8046 60.6358,45.8416 60.5668,45.9096 C60.4098,46.0566 60.2598,46.2116 60.1088,46.3656 C59.7558,46.7206 59.7558,47.1276 60.1088,47.4826 C61.0898,48.4626 62.0708,49.4456 63.0508,50.4286 C63.2008,50.5776 63.3508,50.7206 63.5598,50.7806 L63.8338,50.7806 C64.0278,50.7286 64.1758,50.6036 64.3158,50.4616 C65.2878,49.4886 66.2598,48.5186 67.2348,47.5506 C67.3778,47.4066 67.5028,47.2536 67.5618,47.0536 C67.5598,46.9626 67.5598,46.8716 67.5598,46.7806 C67.4938,46.5806 67.3648,46.4276 67.2178,46.2816 C66.2308,45.3026 65.2458,44.3156 64.2628,43.3316 C63.9018,42.9706 63.4978,42.9756 63.1348,43.3356 C62.9818,43.4896 62.8218,43.6426 62.6708,43.8016 C62.6158,43.8596 62.5778,43.8596 62.5288,43.8006 C62.5038,43.7666 62.4728,43.7416 62.4448,43.7096 C62.0118,43.2816 61.3808,42.6486 60.6428,41.9096 C61.3558,41.5076 62.1728,41.2716 63.0548,41.2716 C65.8308,41.2646 68.0898,43.5246 68.0858,46.2936 C68.0768,49.0596 65.8328,51.2956 63.0718,51.3006 C60.2988,51.3026 58.0498,49.0716 58.0438,46.3126 C58.0438,46.1376 58.0778,45.9766 58.0948,45.8106 L52.2348,39.9086 C52.1248,39.9126 52.0448,39.9476 51.9748,40.0726 C51.5308,40.8786 51.1818,41.7216 50.9008,42.5946 C50.8278,42.8146 50.8638,42.9126 51.0728,43.0346 C52.2828,43.7526 52.9338,44.8346 52.9078,46.2456 C52.8808,47.7566 52.1288,48.8546 50.7698,49.5256 L50.7698,49.6496 C50.9258,50.0826 51.0678,50.5176 51.2378,50.9436 C51.4008,51.3436 51.6018,51.7266 51.7748,52.1226 C51.8508,52.3096 51.9468,52.3266 52.1378,52.2736 C54.2698,51.6376 56.3758,52.9076 56.8088,55.0796 C56.9338,55.7206 56.8938,56.3626 56.6538,56.9766 C56.5788,57.1686 56.6228,57.2486 56.7918,57.3396 C57.5958,57.7886 58.4368,58.1486 59.3108,58.4346 C59.5198,58.5006 59.6018,58.4606 59.7138,58.2586 C60.4208,56.9326 61.5458,56.2236 63.0448,56.2546 C64.5138,56.2846 65.5968,57.0216 66.2678,58.3376 C66.3058,58.4096 66.3628,58.4796 66.3328,58.5726 L66.4618,58.5726 C66.5398,58.4716 66.6668,58.4796 66.7728,58.4446 C67.6778,58.1596 68.5478,57.7876 69.3748,57.3216 C69.5588,57.2176 69.6038,57.1306 69.5208,56.9256 C69.3788,56.5726 69.3218,56.1936 69.3198,55.8106 C69.2968,53.3416 71.5998,51.5826 73.9868,52.2546 C74.1928,52.3096 74.2808,52.2736 74.3738,52.0886 C74.7918,51.2566 75.1168,50.3926 75.3618,49.4966 C75.4058,49.3306 75.3808,49.2396 75.2178,49.1476 C72.6948,47.6946 72.6128,44.3756 75.0598,42.8026 C75.2028,42.7106 75.2388,42.6336 75.1868,42.4766 C74.9138,41.6456 74.5738,40.8416 74.1528,40.0776 C74.0638,39.9156 73.9668,39.8806 73.7968,39.9256 C73.2458,40.0696 72.6918,40.0586 72.1388,39.9256 C70.1838,39.4556 68.9848,37.5546 69.4108,35.5846 C69.4488,35.4236 69.4678,35.3016 69.2778,35.2016 C68.4338,34.7366 67.5538,34.3696 66.6348,34.0856 C66.4618,34.0336 66.3798,34.0776 66.2798,34.2236 C64.7538,36.4696 61.6188,36.4316 60.1268,34.1476 C60.0298,33.9926 59.9448,33.9646 59.7748,34.0106 C58.7828,34.2806 57.8458,34.6666 56.9398,35.1506 C56.7498,35.2466 56.7328,35.3486 56.7758,35.5466" id="Fill-16" fill="#231F1F" mask="url(#mask-2)"></path>
            <path d="M40.0547,57.7451 C40.0547,57.7451 39.0667,48.8861 49.1527,51.4751 C49.1527,51.4751 47.7417,51.9301 47.2887,53.5651 C46.8327,55.2001 45.4247,57.3131 42.4277,56.8131 C41.6547,56.7911 40.4727,57.0401 40.0547,57.7451" id="Fill-17" fill="#231F1F" mask="url(#mask-2)"></path>
            <path d="M91.1719,35.6133 C86.8159,35.6163 83.2809,32.1063 83.2719,27.7643 C83.2609,23.3823 86.7719,19.8503 91.1509,19.8413 C95.5099,19.8303 99.0679,23.3823 99.0589,27.7383 C99.0479,32.0883 95.5239,35.6103 91.1719,35.6133 M101.3179,44.4603 C101.0959,43.9043 101.0069,43.3063 100.9979,42.7073 C100.9629,38.8213 104.5849,36.0553 108.3399,37.1093 C108.6629,37.2003 108.8029,37.1443 108.9479,36.8513 C109.6049,35.5473 110.1169,34.1863 110.5019,32.7723 C110.5709,32.5163 110.5329,32.3673 110.2759,32.2233 C107.6019,30.6863 106.6769,27.8163 107.5309,25.3503 C100.4289,20.8663 91.0409,15.9143 81.2529,13.4783 C80.5549,16.4263 77.6019,18.4713 74.3109,17.6963 C74.0109,17.6313 73.8689,17.6963 73.7279,17.9563 C73.0289,19.2243 72.4789,20.5463 72.0349,21.9263 C71.9249,22.2663 71.9809,22.4183 72.3119,22.6123 C74.2109,23.7463 75.2309,25.4463 75.1969,27.6623 C75.1509,30.0403 73.9729,31.7653 71.8319,32.8213 L71.8319,33.0173 C72.0749,33.6963 72.2989,34.3833 72.5679,35.0523 C72.8239,35.6793 73.1389,36.2833 73.4039,36.9043 C73.5309,37.1973 73.6859,37.2273 73.9819,37.1403 C77.3349,36.1393 80.6479,38.1353 81.3249,41.5523 C81.5259,42.5633 81.4649,43.5733 81.0839,44.5353 C80.9689,44.8403 81.0329,44.9663 81.3019,45.1113 C82.5669,45.8163 83.8879,46.3773 85.2619,46.8273 C85.5869,46.9373 85.7199,46.8703 85.8929,46.5533 C87.0079,44.4673 88.7729,43.3553 91.1319,43.3993 C93.4449,43.4503 95.1449,44.6053 96.1999,46.6773 C96.2599,46.7903 96.3479,46.8993 96.3039,47.0493 L96.5069,47.0493 C96.6329,46.8873 96.8269,46.8993 96.9959,46.8463 C98.4209,46.3963 99.7869,45.8123 101.0919,45.0753 C101.3769,44.9173 101.4459,44.7783 101.3179,44.4603" id="Fill-18" fill="#231F1F" mask="url(#mask-2)"></path>
            <path d="M62.8184,25.1064 C64.9444,25.1044 66.6654,23.3844 66.6694,21.2614 C66.6724,19.1344 64.9374,17.4004 62.8084,17.4074 C60.6724,17.4114 58.9584,19.1344 58.9604,21.2744 C58.9664,23.3934 60.6934,25.1074 62.8184,25.1064 L62.8184,25.1064 Z M53.3774,23.7414 C54.4224,23.2264 54.9984,22.3854 55.0184,21.2234 C55.0354,20.1424 54.5404,19.3104 53.6114,18.7584 C53.4504,18.6654 53.4224,18.5894 53.4754,18.4224 C53.6914,17.7514 53.9634,17.1054 54.3024,16.4844 C54.3734,16.3584 54.4404,16.3264 54.5864,16.3584 C56.6424,16.8434 58.4384,15.0754 57.9864,13.0114 C57.9554,12.8604 57.9694,12.7824 58.1134,12.7094 C58.8074,12.3354 59.5274,12.0394 60.2874,11.8344 C60.4214,11.7954 60.4864,11.8174 60.5604,11.9364 C61.7064,13.6894 64.1124,13.7184 65.2844,11.9954 C65.3624,11.8854 65.4234,11.8494 65.5564,11.8904 C66.2594,12.1074 66.9394,12.3884 67.5854,12.7464 C67.7304,12.8244 67.7154,12.9174 67.6884,13.0424 C67.3594,14.5524 68.2814,16.0124 69.7804,16.3724 C70.2094,16.4744 70.6304,16.4824 71.0524,16.3724 C71.1834,16.3364 71.2574,16.3654 71.3264,16.4884 C71.6504,17.0764 71.9104,17.6944 72.1214,18.3354 C72.1644,18.4524 72.1334,18.5104 72.0224,18.5804 C70.1454,19.7884 70.2094,22.3364 72.1464,23.4514 C72.2714,23.5204 72.2884,23.5934 72.2564,23.7184 C72.0684,24.4094 71.8174,25.0724 71.4964,25.7104 C71.4244,25.8534 71.3574,25.8804 71.2014,25.8354 C69.3674,25.3234 67.5994,26.6724 67.6174,28.5674 C67.6214,28.8604 67.6634,29.1534 67.7704,29.4234 C67.8344,29.5794 67.8004,29.6464 67.6594,29.7264 C67.0254,30.0854 66.3564,30.3704 65.6624,30.5894 C65.5784,30.6164 65.4844,30.6104 65.4234,30.6884 L65.3244,30.6884 C65.3474,30.6164 65.3024,30.5624 65.2754,30.5064 C64.7584,29.4964 63.9284,28.9314 62.7994,28.9074 C61.6494,28.8854 60.7884,29.4284 60.2414,30.4474 C60.1564,30.6024 60.0934,30.6334 59.9354,30.5814 C59.2614,30.3604 58.6184,30.0864 58.0024,29.7434 C57.8714,29.6704 57.8394,29.6104 57.8934,29.4614 C58.0804,28.9914 58.1114,28.4994 58.0114,28.0054 C57.6804,26.3374 56.0634,25.3634 54.4274,25.8514 C54.2804,25.8934 54.2064,25.8794 54.1444,25.7354 C54.0134,25.4324 53.8594,25.1374 53.7374,24.8314 C53.6044,24.5044 53.4954,24.1694 53.3774,23.8384 L53.3774,23.7414 Z" id="Fill-19" fill="#231F1F" mask="url(#mask-2)"></path>
            <path d="M53.6426,11.7578 C54.6876,11.7568 55.5346,10.9118 55.5346,9.8668 C55.5386,8.8198 54.6856,7.9668 53.6366,7.9688 C52.5846,7.9708 51.7426,8.8198 51.7456,9.8718 C51.7456,10.9168 52.5956,11.7588 53.6426,11.7578 L53.6426,11.7578 Z M48.9966,11.0868 C49.5096,10.8338 49.7916,10.4198 49.8046,9.8488 C49.8116,9.3158 49.5686,8.9068 49.1106,8.6358 C49.0326,8.5898 49.0176,8.5518 49.0446,8.4708 C49.1526,8.1398 49.2836,7.8218 49.4526,7.5178 C49.4866,7.4548 49.5216,7.4398 49.5916,7.4548 C50.6026,7.6928 51.4876,6.8238 51.2636,5.8078 C51.2486,5.7328 51.2546,5.6958 51.3276,5.6598 C51.6666,5.4748 52.0236,5.3298 52.3976,5.2298 C52.4626,5.2098 52.4946,5.2208 52.5306,5.2788 C53.0936,6.1408 54.2776,6.1558 54.8546,5.3088 C54.8926,5.2528 54.9216,5.2358 54.9876,5.2568 C55.3336,5.3628 55.6686,5.5008 55.9856,5.6768 C56.0596,5.7158 56.0506,5.7608 56.0386,5.8228 C55.8756,6.5668 56.3286,7.2838 57.0666,7.4628 C57.2756,7.5118 57.4826,7.5168 57.6936,7.4628 C57.7566,7.4438 57.7926,7.4578 57.8286,7.5178 C57.9866,7.8088 58.1136,8.1118 58.2186,8.4268 C58.2386,8.4858 58.2256,8.5138 58.1696,8.5478 C57.2466,9.1428 57.2756,10.3958 58.2316,10.9448 C58.2906,10.9798 58.2986,11.0138 58.2846,11.0748 C58.1916,11.4158 58.0666,11.7418 57.9116,12.0558 C57.8766,12.1248 57.8406,12.1408 57.7656,12.1168 C56.8616,11.8628 55.9926,12.5288 55.9996,13.4618 C56.0046,13.6058 56.0236,13.7508 56.0786,13.8828 C56.1106,13.9598 56.0936,13.9918 56.0236,14.0308 C55.7086,14.2088 55.3816,14.3488 55.0396,14.4568 C54.9996,14.4688 54.9536,14.4668 54.9216,14.5038 L54.8726,14.5038 C54.8856,14.4688 54.8656,14.4428 54.8496,14.4158 C54.5966,13.9178 54.1876,13.6398 53.6296,13.6278 C53.0646,13.6178 52.6426,13.8838 52.3736,14.3858 C52.3316,14.4618 52.2996,14.4778 52.2216,14.4508 C51.8906,14.3438 51.5746,14.2088 51.2696,14.0398 C51.2066,14.0038 51.1896,13.9748 51.2166,13.9028 C51.3106,13.6698 51.3226,13.4278 51.2766,13.1858 C51.1136,12.3648 50.3186,11.8858 49.5116,12.1248 C49.4396,12.1468 49.4066,12.1388 49.3736,12.0688 C49.3106,11.9188 49.2356,11.7758 49.1736,11.6238 C49.1086,11.4628 49.0536,11.2978 48.9966,11.1358 L48.9966,11.0868 Z" id="Fill-20" fill="#231F1F" mask="url(#mask-2)"></path>
            <path d="M79.9424,64.3965 C81.6674,64.3945 83.0664,62.9985 83.0704,61.2725 C83.0724,59.5445 81.6654,58.1355 79.9334,58.1395 C78.1964,58.1445 76.8034,59.5445 76.8074,61.2835 C76.8114,63.0055 78.2134,64.3975 79.9424,64.3965 L79.9424,64.3965 Z M72.2694,63.2885 C73.1174,62.8695 73.5864,62.1845 73.6054,61.2435 C73.6204,60.3625 73.2144,59.6885 72.4594,59.2395 C72.3284,59.1615 72.3044,59.1025 72.3494,58.9675 C72.5264,58.4205 72.7464,57.8965 73.0224,57.3925 C73.0784,57.2905 73.1344,57.2635 73.2534,57.2905 C74.9224,57.6825 76.3804,56.2465 76.0154,54.5705 C75.9904,54.4465 76.0014,54.3835 76.1174,54.3235 C76.6804,54.0195 77.2694,53.7785 77.8864,53.6125 C77.9944,53.5815 78.0454,53.5995 78.1074,53.6965 C79.0394,55.1215 80.9934,55.1445 81.9454,53.7445 C82.0064,53.6545 82.0574,53.6265 82.1654,53.6595 C82.7394,53.8345 83.2884,54.0635 83.8134,54.3535 C83.9314,54.4165 83.9214,54.4925 83.8984,54.5935 C83.6304,55.8225 84.3794,57.0085 85.5994,57.2995 C85.9454,57.3835 86.2874,57.3885 86.6334,57.2995 C86.7374,57.2705 86.7984,57.2925 86.8534,57.3945 C87.1194,57.8745 87.3304,58.3745 87.4994,58.8945 C87.5334,58.9905 87.5094,59.0375 87.4194,59.0935 C85.8944,60.0755 85.9454,62.1465 87.5184,63.0515 C87.6224,63.1105 87.6364,63.1675 87.6094,63.2695 C87.4574,63.8315 87.2524,64.3695 86.9924,64.8875 C86.9354,65.0045 86.8804,65.0255 86.7524,64.9905 C85.2614,64.5735 83.8264,65.6695 83.8384,67.2085 C83.8434,67.4495 83.8774,67.6855 83.9654,67.9075 C84.0184,68.0315 83.9884,68.0875 83.8754,68.1505 C83.3594,68.4435 82.8174,68.6755 82.2524,68.8515 C82.1864,68.8755 82.1084,68.8695 82.0574,68.9325 L81.9774,68.9325 C81.9944,68.8755 81.9604,68.8295 81.9374,68.7855 C81.5194,67.9635 80.8434,67.5035 79.9254,67.4845 C78.9904,67.4655 78.2914,67.9075 77.8474,68.7365 C77.7784,68.8615 77.7284,68.8885 77.5994,68.8445 C77.0524,68.6655 76.5274,68.4435 76.0264,68.1645 C75.9214,68.1055 75.8954,68.0555 75.9424,67.9365 C76.0894,67.5545 76.1154,67.1535 76.0354,66.7515 C75.7694,65.3975 74.4524,64.6055 73.1224,65.0015 C73.0044,65.0365 72.9424,65.0245 72.8944,64.9075 C72.7884,64.6625 72.6644,64.4235 72.5624,64.1745 C72.4554,63.9085 72.3664,63.6365 72.2694,63.3685 L72.2694,63.2885 Z" id="Fill-21" fill="#231F1F" mask="url(#mask-2)"></path>
            <path d="M46.5459,74.7725 C48.1079,74.7725 49.3739,73.5065 49.3789,71.9465 C49.3809,70.3805 48.1059,69.1045 46.5369,69.1095 C44.9649,69.1125 43.7039,70.3805 43.7069,71.9565 C43.7129,73.5135 44.9799,74.7765 46.5459,74.7725 L46.5459,74.7725 Z M39.5989,73.7715 C40.3669,73.3915 40.7889,72.7715 40.8089,71.9185 C40.8209,71.1225 40.4529,70.5115 39.7719,70.1035 C39.6509,70.0355 39.6329,69.9795 39.6699,69.8575 C39.8309,69.3625 40.0289,68.8875 40.2799,68.4315 C40.3309,68.3395 40.3819,68.3155 40.4889,68.3395 C42.0009,68.6965 43.3219,67.3955 42.9879,65.8765 C42.9679,65.7635 42.9789,65.7075 43.0839,65.6545 C43.5949,65.3795 44.1249,65.1585 44.6839,65.0085 C44.7809,64.9815 44.8299,64.9965 44.8849,65.0845 C45.7269,66.3765 47.4979,66.3955 48.3589,65.1265 C48.4159,65.0475 48.4599,65.0215 48.5599,65.0515 C49.0759,65.2105 49.5769,65.4185 50.0519,65.6795 C50.1599,65.7375 50.1489,65.8065 50.1279,65.8975 C49.8849,67.0095 50.5629,68.0845 51.6669,68.3485 C51.9819,68.4235 52.2909,68.4285 52.6039,68.3485 C52.6989,68.3235 52.7559,68.3415 52.8049,68.4335 C53.0449,68.8655 53.2329,69.3215 53.3919,69.7925 C53.4189,69.8795 53.3999,69.9225 53.3169,69.9735 C51.9379,70.8615 51.9819,72.7385 53.4079,73.5555 C53.4989,73.6085 53.5139,73.6625 53.4859,73.7535 C53.3499,74.2605 53.1659,74.7515 52.9289,75.2185 C52.8759,75.3255 52.8279,75.3435 52.7119,75.3105 C51.3629,74.9345 50.0609,75.9265 50.0749,77.3195 C50.0789,77.5385 50.1089,77.7515 50.1899,77.9515 C50.2349,78.0645 50.2099,78.1165 50.1069,78.1715 C49.6409,78.4365 49.1489,78.6455 48.6379,78.8095 C48.5759,78.8295 48.5069,78.8235 48.4599,78.8805 L48.3889,78.8805 C48.4029,78.8295 48.3739,78.7895 48.3529,78.7495 C47.9729,78.0045 47.3619,77.5875 46.5329,77.5695 C45.6849,77.5555 45.0489,77.9535 44.6489,78.7035 C44.5869,78.8175 44.5399,78.8395 44.4219,78.8025 C43.9309,78.6405 43.4549,78.4405 42.9999,78.1835 C42.9039,78.1325 42.8789,78.0875 42.9219,77.9785 C43.0589,77.6315 43.0799,77.2705 43.0079,76.9075 C42.7659,75.6805 41.5739,74.9635 40.3729,75.3225 C40.2639,75.3545 40.2089,75.3425 40.1619,75.2375 C40.0689,75.0145 39.9549,74.7985 39.8649,74.5725 C39.7679,74.3335 39.6859,74.0855 39.5989,73.8425 L39.5989,73.7715 Z" id="Fill-22" fill="#231F1F" mask="url(#mask-2)"></path>
            <path d="M92.502,98.5488 C94.022,98.5488 95.542,98.5458 97.064,98.5538 C97.307,98.5558 97.354,98.5018 97.236,98.2818 C96.652,97.1678 96.091,96.0408 95.491,94.9328 C94.999,94.0278 94.704,93.1108 94.731,92.0468 C94.788,89.7168 94.744,87.3818 94.754,85.0488 C94.757,84.7598 94.688,84.6628 94.383,84.6678 C93.148,84.6828 91.909,84.6858 90.674,84.6638 C90.357,84.6608 90.283,84.7538 90.283,85.0618 C90.299,87.5848 90.29,90.1058 90.294,92.6258 C90.294,93.1548 90.183,93.6508 89.939,94.1188 C89.231,95.4918 88.535,96.8658 87.824,98.2328 C87.688,98.4918 87.704,98.5588 88.015,98.5558 C89.509,98.5448 91.006,98.5508 92.502,98.5488 L92.502,98.5488 Z M92.511,108.2708 L83.814,108.2708 L83.566,108.2708 C82.356,108.2528 81.796,107.3638 82.336,106.2728 C82.805,105.3248 83.307,104.3908 83.793,103.4478 C85.523,100.1028 87.252,96.7568 88.987,93.4108 C89.078,93.2378 89.123,93.0698 89.123,92.8748 C89.12,90.2598 89.12,87.6418 89.123,85.0268 C89.125,84.8218 89.12,84.6808 88.856,84.6318 C88.565,84.5768 88.447,84.3388 88.466,84.0428 C88.485,83.7388 88.675,83.5858 88.953,83.5218 C89.009,83.5068 89.072,83.5138 89.127,83.5138 C91.394,83.5108 93.654,83.5108 95.918,83.5148 C96.285,83.5148 96.507,83.6858 96.56,83.9898 C96.618,84.3218 96.473,84.5548 96.089,84.6508 C95.886,84.7018 95.905,84.8258 95.905,84.9658 L95.905,88.3228 C95.905,89.8088 95.909,91.2958 95.902,92.7788 C95.9,93.0218 95.947,93.2358 96.061,93.4528 C98.212,97.6008 100.361,101.7528 102.51,105.9048 C102.607,106.0918 102.706,106.2798 102.782,106.4778 C103.139,107.4218 102.643,108.1948 101.632,108.2638 C101.49,108.2748 101.352,108.2708 101.207,108.2708 L92.511,108.2708 Z" id="Fill-23" fill="#231F1F" mask="url(#mask-2)"></path>
            <path d="M94.3193,49.5 C94.4733,49.5 94.6003,49.624 94.6003,49.778 C94.6003,49.933 94.4733,50.06 94.3193,50.06 C94.1663,50.06 94.0413,49.933 94.0413,49.778 C94.0413,49.624 94.1663,49.5 94.3193,49.5 L94.3193,49.5 Z M94.3193,52.132 C94.1663,52.132 94.0413,52.006 94.0413,51.852 C94.0413,51.696 94.1663,51.572 94.3193,51.572 C94.4733,51.572 94.6003,51.696 94.6003,51.852 C94.6003,52.006 94.4733,52.132 94.3193,52.132 L94.3193,52.132 Z M96.3693,54.554 C96.5233,54.554 96.6483,54.68 96.6483,54.834 C96.6483,54.988 96.5233,55.114 96.3693,55.114 C96.2133,55.114 96.0893,54.988 96.0893,54.834 C96.0893,54.68 96.2133,54.554 96.3693,54.554 L96.3693,54.554 Z M98.4423,54.554 C98.5953,54.554 98.7203,54.68 98.7203,54.834 C98.7203,54.988 98.5953,55.114 98.4423,55.114 C98.2863,55.114 98.1613,54.988 98.1613,54.834 C98.1613,54.68 98.2863,54.554 98.4423,54.554 L98.4423,54.554 Z M93.4123,52.722 L95.2363,52.722 L95.2363,56.138 L99.6323,56.138 L99.6323,52.454 C99.6323,50.178 97.7793,48.325 95.5043,48.325 L93.4123,48.325 L93.4123,52.722 Z" id="Fill-24" fill="#231F1F" mask="url(#mask-2)"></path>
            <polygon id="Fill-25" fill="#231F1F" mask="url(#mask-2)" points="95.236 78.092 99.632 78.092 99.632 57.604 95.236 57.604"></polygon>
            <polygon id="Fill-26" fill="#231F1F" mask="url(#mask-2)" points="69.863 52.721 91.947 52.721 91.947 48.325 69.863 48.325"></polygon>
            <polygon id="Fill-27" fill="#231F1F" mask="url(#mask-2)" points="82.128 74.197 90.313 74.197 90.313 71.938 82.128 71.938"></polygon>
            <polygon id="Fill-28" fill="#231F1F" mask="url(#mask-2)" points="85.397 78.092 87.045 78.092 87.045 72.732 85.397 72.732"></polygon>
            <polygon id="Fill-29" fill="#231F1F" mask="url(#mask-2)" points="90.316 84.121 94.712 84.121 94.712 78.092 90.316 78.092"></polygon>
            <polygon id="Fill-30" fill="#231F1F" mask="url(#mask-2)" points="55.135 89.802 59.532 89.802 59.532 51.592 55.135 51.592"></polygon>
            <path d="M118.6084,48.2207 C118.9244,48.4057 119.2904,48.4867 119.5854,48.7247 C120.3684,49.3527 120.6674,50.1817 120.4694,51.1317 C120.2724,52.0877 119.6614,52.7547 118.6784,52.9407 C118.2174,53.0277 118.0364,53.2417 117.8994,53.6577 C117.4524,55.0147 116.9674,56.3607 116.4774,57.7027 C116.3704,57.9957 116.3624,58.1817 116.6264,58.4117 C117.3014,58.9987 117.6284,59.7677 117.5594,60.6617 C117.5304,61.0467 117.6674,61.2157 117.9974,61.3637 C118.6594,61.6607 119.3054,61.9907 119.9444,62.3317 C120.2234,62.4827 120.4034,62.4787 120.6594,62.2517 C121.5364,61.4857 122.7474,61.4577 123.6354,62.1357 C124.5444,62.8297 124.8524,64.0187 124.3854,65.0337 C123.9034,66.0847 122.8194,66.6187 121.6594,66.3797 C120.6004,66.1607 119.7824,65.1687 119.8094,64.0307 C119.8194,63.6327 119.6674,63.4787 119.3624,63.3347 C118.7084,63.0267 118.0554,62.7077 117.4174,62.3697 C117.1634,62.2357 116.9894,62.2257 116.8274,62.4857 C116.7644,62.5817 116.6764,62.6867 116.5754,62.7287 C115.7604,63.0747 115.8034,63.7147 115.8604,64.4577 C115.9854,66.1027 116.0224,67.7527 116.0774,69.4007 C116.0904,69.7607 116.1764,69.9467 116.5794,70.0287 C117.6784,70.2527 118.3994,71.1917 118.4094,72.3127 C118.4224,73.4467 117.7194,74.3647 116.6294,74.6417 C115.5224,74.9237 114.4214,74.4337 113.9014,73.4267 C113.3914,72.4387 113.5944,71.2637 114.4654,70.5497 C114.7944,70.2797 114.8934,70.0267 114.8704,69.6117 C114.7604,67.7107 114.6824,65.8067 114.6144,63.9037 C114.6024,63.5677 114.5224,63.4547 114.1654,63.3987 C113.2604,63.2587 112.5714,62.7487 112.1394,61.9417 C111.9774,61.6357 111.8524,61.5337 111.4794,61.6287 C110.0944,61.9867 108.6994,62.2937 107.3014,62.6047 C107.0004,62.6707 106.8564,62.8247 106.7404,63.1077 C106.2954,64.2067 105.2304,64.7867 104.0884,64.5937 C103.0294,64.4127 102.1844,63.4407 102.1214,62.3227 C102.0604,61.2627 102.8024,60.2347 103.8474,59.9267 C104.9414,59.6047 106.0604,60.0747 106.6284,61.1437 C106.7874,61.4447 106.9234,61.5097 107.2514,61.4287 C108.6194,61.0887 109.9934,60.7767 111.3704,60.4667 C111.6294,60.4087 111.7474,60.2937 111.8214,60.0257 C112.2704,58.3937 113.2194,57.6577 114.8704,57.6547 C115.1414,57.6537 115.2864,57.5957 115.3794,57.3187 C115.8604,55.9107 116.3544,54.5067 116.8564,53.1077 C116.9384,52.8767 116.9794,52.7237 116.7374,52.5617 C115.1294,51.4697 115.5044,48.7987 117.5834,48.2977 C117.6144,48.2897 117.6374,48.2477 117.6654,48.2207 L118.6084,48.2207 Z" id="Fill-31" fill="#231F1F" mask="url(#mask-2)"></path>
            <path d="M39.3223,77.3477 C39.3223,77.5017 39.1973,77.6287 39.0433,77.6287 C38.8893,77.6287 38.7623,77.5017 38.7623,77.3477 C38.7623,77.1947 38.8893,77.0697 39.0433,77.0697 C39.1973,77.0697 39.3223,77.1947 39.3223,77.3477 L39.3223,77.3477 Z M38.7623,79.4207 C38.7623,79.2657 38.8893,79.1417 39.0433,79.1417 C39.1973,79.1417 39.3223,79.2657 39.3223,79.4207 C39.3223,79.5757 39.1973,79.7017 39.0433,79.7017 C38.8893,79.7017 38.7623,79.5757 38.7623,79.4207 L38.7623,79.4207 Z M37.2743,82.4037 C37.2743,82.5577 37.1503,82.6837 36.9943,82.6837 C36.8403,82.6837 36.7153,82.5577 36.7153,82.4037 C36.7153,82.2497 36.8403,82.1227 36.9943,82.1227 C37.1503,82.1227 37.2743,82.2497 37.2743,82.4037 L37.2743,82.4037 Z M35.2013,82.4037 C35.2013,82.5577 35.0773,82.6837 34.9213,82.6837 C34.7663,82.6837 34.6423,82.5577 34.6423,82.4037 C34.6423,82.2497 34.7663,82.1227 34.9213,82.1227 C35.0773,82.1227 35.2013,82.2497 35.2013,82.4037 L35.2013,82.4037 Z M39.9513,75.8947 L37.8593,75.8947 C35.5843,75.8947 33.7303,77.7467 33.7303,80.0237 L33.7303,83.7067 L38.1273,83.7067 L38.1273,80.2907 L39.9513,80.2907 L39.9513,75.8947 Z" id="Fill-32" fill="#231F1F" mask="url(#mask-2)"></path>
            <polygon id="Fill-33" fill="#231F1F" mask="url(#mask-2)" points="33.731 97.956 38.127 97.956 38.127 85.173 33.731 85.173"></polygon>
            <polygon id="Fill-34" fill="#231F1F" mask="url(#mask-2)" points="41.416 80.291 123.72 80.291 123.72 75.895 41.416 75.895"></polygon>
            <path d="M4.2148,89.6475 C4.0878,92.1435 5.2618,94.6965 8.4728,96.4505 C13.3718,94.3635 16.4238,90.5635 15.5188,87.2555 C14.8188,84.6895 11.9108,83.0815 8.1778,82.8105 C7.9308,83.0225 7.6698,83.2445 7.3918,83.4825 C5.7538,84.8775 4.5348,87.2355 4.2148,89.6475" id="Fill-35" fill="#231F1F" mask="url(#mask-2)"></path>
            <path d="M33.6211,90.9414 C33.1921,91.1184 31.4351,91.8254 28.8421,92.6804 L28.8441,92.6804 C30.5601,92.2384 32.1441,91.6384 33.6211,90.9414" id="Fill-36" fill="#231F1F" mask="url(#mask-2)"></path>
        </g>
    </g>
</svg>