<?xml version="1.0" encoding="UTF-8" standalone="no"?>
<!DOCTYPE svg PUBLIC "-//W3C//DTD SVG 1.1//EN"
 "http://www.w3.org/Graphics/SVG/1.1/DTD/svg11.dtd">
<!-- Generated by graphviz version 2.40.1 (20161225.0304)
 -->
<!-- Title: Apparatus_0 Pages: 1 -->
<svg width="460pt" height="120pt"
 viewBox="0.00 0.00 459.51 120.00" xmlns="http://www.w3.org/2000/svg" xmlns:xlink="http://www.w3.org/1999/xlink">
<g id="graph0" class="graph" transform="scale(1 1) rotate(0) translate(4 116)">
<title>Apparatus_0</title>
<polygon fill="#ffffff" stroke="transparent" points="-4,4 -4,-116 455.5078,-116 455.5078,4 -4,4"/>
<text text-anchor="middle" x="225.7539" y="-6.8" font-family="Times,serif" font-size="14.00" fill="#000000">Apparatus_0</text>
<!-- TMixer_0 -->
<g id="node1" class="node">
<title>TMixer_0</title>
<polygon fill="none" stroke="#000000" points="302.6527,-79 242.1207,-79 242.1207,-55 302.6527,-55 314.6527,-67 302.6527,-79"/>
<text text-anchor="middle" x="278.3867" y="-62.8" font-family="Times,serif" font-size="14.00" fill="#000000">TMixer_0</text>
</g>
<!-- acetaminophen -->
<g id="node2" class="node">
<title>acetaminophen</title>
<path fill="none" stroke="#000000" d="M451.3773,-81.7273C451.3773,-83.5331 428.8595,-85 401.1387,-85 373.4178,-85 350.9001,-83.5331 350.9001,-81.7273 350.9001,-81.7273 350.9001,-52.2727 350.9001,-52.2727 350.9001,-50.4669 373.4178,-49 401.1387,-49 428.8595,-49 451.3773,-50.4669 451.3773,-52.2727 451.3773,-52.2727 451.3773,-81.7273 451.3773,-81.7273"/>
<path fill="none" stroke="#000000" d="M451.3773,-81.7273C451.3773,-79.9214 428.8595,-78.4545 401.1387,-78.4545 373.4178,-78.4545 350.9001,-79.9214 350.9001,-81.7273"/>
<text text-anchor="middle" x="401.1387" y="-62.8" font-family="Times,serif" font-size="14.00" fill="#000000">acetaminophen</text>
</g>
<!-- TMixer_0&#45;&gt;acetaminophen -->
<g id="edge5" class="edge">
<title>TMixer_0&#45;&gt;acetaminophen</title>
<path fill="none" stroke="#000000" d="M314.884,-67C314.884,-67 340.4702,-67 340.4702,-67"/>
<polygon fill="#000000" stroke="#000000" points="340.4702,-70.5001 350.4702,-67 340.4702,-63.5001 340.4702,-70.5001"/>
</g>
<!-- acetic anhydride -->
<g id="node3" class="node">
<title>acetic anhydride</title>
<path fill="none" stroke="#000000" d="M108.1714,-54.7273C108.1714,-56.5331 83.9165,-58 54.0571,-58 24.1977,-58 -.0572,-56.5331 -.0572,-54.7273 -.0572,-54.7273 -.0572,-25.2727 -.0572,-25.2727 -.0572,-23.4669 24.1977,-22 54.0571,-22 83.9165,-22 108.1714,-23.4669 108.1714,-25.2727 108.1714,-25.2727 108.1714,-54.7273 108.1714,-54.7273"/>
<path fill="none" stroke="#000000" d="M108.1714,-54.7273C108.1714,-52.9214 83.9165,-51.4545 54.0571,-51.4545 24.1977,-51.4545 -.0572,-52.9214 -.0572,-54.7273"/>
<text text-anchor="middle" x="54.0571" y="-35.8" font-family="Times,serif" font-size="14.00" fill="#000000">acetic anhydride</text>
</g>
<!-- pump_2 -->
<g id="node6" class="node">
<title>pump_2</title>
<polygon fill="none" stroke="#000000" points="205.9488,-58 148.1693,-58 144.1693,-54 144.1693,-22 201.9488,-22 205.9488,-26 205.9488,-58"/>
<polyline fill="none" stroke="#000000" points="201.9488,-54 144.1693,-54 "/>
<polyline fill="none" stroke="#000000" points="201.9488,-54 201.9488,-22 "/>
<polyline fill="none" stroke="#000000" points="201.9488,-54 205.9488,-58 "/>
<text text-anchor="middle" x="175.0591" y="-35.8" font-family="Times,serif" font-size="14.00" fill="#000000">pump_2</text>
</g>
<!-- acetic anhydride&#45;&gt;pump_2 -->
<g id="edge2" class="edge">
<title>acetic anhydride&#45;&gt;pump_2</title>
<path fill="none" stroke="#000000" d="M108.1877,-40C108.1877,-40 133.8415,-40 133.8415,-40"/>
<polygon fill="#000000" stroke="#000000" points="133.8416,-43.5001 143.8415,-40 133.8415,-36.5001 133.8416,-43.5001"/>
</g>
<!-- aminophenol -->
<g id="node4" class="node">
<title>aminophenol</title>
<path fill="none" stroke="#000000" d="M98.6539,-108.7273C98.6539,-110.5331 78.6649,-112 54.0571,-112 29.4494,-112 9.4604,-110.5331 9.4604,-108.7273 9.4604,-108.7273 9.4604,-79.2727 9.4604,-79.2727 9.4604,-77.4669 29.4494,-76 54.0571,-76 78.6649,-76 98.6539,-77.4669 98.6539,-79.2727 98.6539,-79.2727 98.6539,-108.7273 98.6539,-108.7273"/>
<path fill="none" stroke="#000000" d="M98.6539,-108.7273C98.6539,-106.9214 78.6649,-105.4545 54.0571,-105.4545 29.4494,-105.4545 9.4604,-106.9214 9.4604,-108.7273"/>
<text text-anchor="middle" x="54.0571" y="-89.8" font-family="Times,serif" font-size="14.00" fill="#000000">aminophenol</text>
</g>
<!-- pump_1 -->
<g id="node5" class="node">
<title>pump_1</title>
<polygon fill="none" stroke="#000000" points="205.9488,-112 148.1693,-112 144.1693,-108 144.1693,-76 201.9488,-76 205.9488,-80 205.9488,-112"/>
<polyline fill="none" stroke="#000000" points="201.9488,-108 144.1693,-108 "/>
<polyline fill="none" stroke="#000000" points="201.9488,-108 201.9488,-76 "/>
<polyline fill="none" stroke="#000000" points="201.9488,-108 205.9488,-112 "/>
<text text-anchor="middle" x="175.0591" y="-89.8" font-family="Times,serif" font-size="14.00" fill="#000000">pump_1</text>
</g>
<!-- aminophenol&#45;&gt;pump_1 -->
<g id="edge1" class="edge">
<title>aminophenol&#45;&gt;pump_1</title>
<path fill="none" stroke="#000000" d="M98.77,-94C98.77,-94 134.1141,-94 134.1141,-94"/>
<polygon fill="#000000" stroke="#000000" points="134.1141,-97.5001 144.1141,-94 134.114,-90.5001 134.1141,-97.5001"/>
</g>
<!-- pump_1&#45;&gt;TMixer_0 -->
<g id="edge3" class="edge">
<title>pump_1&#45;&gt;TMixer_0</title>
<path fill="none" stroke="#000000" d="M206.0608,-80.5C206.0608,-80.5 231.9504,-80.5 231.9504,-80.5"/>
<polygon fill="#000000" stroke="#000000" points="231.9505,-84.0001 241.9504,-80.5 231.9504,-77.0001 231.9505,-84.0001"/>
</g>
<!-- pump_2&#45;&gt;TMixer_0 -->
<g id="edge4" class="edge">
<title>pump_2&#45;&gt;TMixer_0</title>
<path fill="none" stroke="#000000" d="M206.0608,-53.5C206.0608,-53.5 231.9504,-53.5 231.9504,-53.5"/>
<polygon fill="#000000" stroke="#000000" points="231.9505,-57.0001 241.9504,-53.5 231.9504,-50.0001 231.9505,-57.0001"/>
</g>
</g>
</svg>
